<svg viewBox="0 0 340 72" xmlns="http://www.w3.org/2000/svg" fill-rule="evenodd" clip-rule="evenodd" stroke-linejoin="round" stroke-miterlimit="2"><path d="M39.962 23.541a3.402 3.402 0 01-3.396-3.397 3.4 3.4 0 013.396-3.394 3.397 3.397 0 013.394 3.394 3.4 3.4 0 01-3.394 3.397m-9.215 6.303a30.624 30.624 0 0016.259 18.109c-.44 1.622-.662 3.3-.662 4.988 0 3.196.809 6.356 2.347 9.146a41.436 41.436 0 01-5.872.419 41.154 41.154 0 01-14.694-2.69 41.404 41.404 0 01-17.534-12.782 40.79 40.79 0 01-3.16-4.522 25.808 25.808 0 01-3.184-12.431 25.795 25.795 0 016.39-17.009c8.816 2.222 16.332 8.49 20.11 16.772m44.865 16.472a41.285 41.285 0 01-11.375 10.206 18.842 18.842 0 00-3.128-5.816 30.505 30.505 0 0014.503-4.39m8.46-34.319l-.166.284c-2.237 3.872-1.7 8.844 1.297 12.15a29.475 29.475 0 01-25.272 9.438c.156-1.257.238-2.528.238-3.788C60.169 13.494 46.672 0 30.084 0 13.497 0 0 13.494 0 30.081c0 4.828 1.109 9.444 3.306 13.719a45.532 45.532 0 004.588 6.591l.018.018a45.91 45.91 0 007.632 7.228c1.906 7.494 8.072 13.032 15.722 14.113l.112.016.056-.1a18.777 18.777 0 002.085-5.91 45.803 45.803 0 0017.928.135 19.033 19.033 0 0011.209 5.859l.113.016.053-.1a18.991 18.991 0 002.303-10.788 45.654 45.654 0 008.197-5.9c8.184-7.394 13.394-17.456 14.687-28.356a10.418 10.418 0 007.563.869 10.323 10.323 0 006.297-4.835l.165-.287-17.962-10.372z" fill="#2452c8" fill-rule="nonzero"/><path d="M114.282 56.64V12.002h10.844v35.244h17.275v9.394h-28.119zM163.473 32.809c-1.215 0-2.293.234-3.215.697a7.09 7.09 0 00-2.297 1.787 7.66 7.66 0 00-1.391 2.563 9.53 9.53 0 000 5.921 8.233 8.233 0 001.416 2.616 6.942 6.942 0 002.337 1.863c.919.459 2.004.693 3.216.693 1.209 0 2.294-.234 3.216-.693a6.93 6.93 0 002.331-1.863 8.194 8.194 0 001.419-2.612 9.52 9.52 0 00.472-2.966 8.856 8.856 0 00-.507-2.966 7.649 7.649 0 00-1.45-2.55 7.477 7.477 0 00-2.331-1.797c-.919-.459-2-.693-3.216-.693m0 24.84c-2.337 0-4.596-.403-6.712-1.2-2.109-.79-3.978-1.925-5.55-3.372-1.569-1.443-2.831-3.225-3.753-5.296-.919-2.072-1.385-4.416-1.385-6.966 0-2.544.466-4.878 1.388-6.934.922-2.05 2.184-3.81 3.75-5.235 1.572-1.422 3.441-2.525 5.55-3.275 2.112-.756 4.372-1.137 6.712-1.137 2.388 0 4.657.381 6.747 1.137a16.838 16.838 0 015.553 3.275c1.588 1.425 2.86 3.188 3.779 5.235.921 2.056 1.387 4.39 1.387 6.934 0 2.55-.466 4.894-1.387 6.966-.919 2.071-2.191 3.85-3.782 5.296a17.38 17.38 0 01-5.55 3.372c-2.09.797-4.359 1.2-6.747 1.2M202.641 32.809c-1.169 0-2.219.212-3.119.631a6.8 6.8 0 00-2.3 1.703 7.434 7.434 0 00-1.45 2.519 9.251 9.251 0 00-.506 3.09c0 1.057.169 2.075.506 3.029a7.708 7.708 0 001.45 2.553 7.068 7.068 0 002.3 1.765c.897.438 1.947.66 3.119.66 1.172 0 2.247-.222 3.187-.66.944-.447 1.747-1.028 2.394-1.734.66-.725 1.15-1.547 1.513-2.525a8.745 8.745 0 00.534-3.088 8.78 8.78 0 00-.534-3.025 7.73 7.73 0 00-1.544-2.553 7.287 7.287 0 00-2.4-1.737c-.916-.416-1.978-.628-3.15-.628m-1.006 38.962c-2.763 0-5.638-.425-8.547-1.262-2.897-.835-5.456-2.063-7.594-3.653l5.169-7.379a15.076 15.076 0 005.015 2.994c1.819.65 3.632.978 5.388.978 3.012 0 5.272-.806 6.716-2.397.99-1.093 1.653-2.45 1.962-4.028l.775-3.937-3.431 2.081c-.388.234-.797.453-1.231.65-1.629.756-3.519 1.138-5.613 1.138-2.384 0-4.528-.435-6.362-1.294a13.922 13.922 0 01-4.7-3.497c-1.279-1.463-2.263-3.194-2.932-5.141-.672-1.947-1.009-4.037-1.009-6.209 0-2.178.337-4.278 1.009-6.241.669-1.965 1.653-3.725 2.932-5.231a14.355 14.355 0 014.696-3.628c1.844-.9 3.966-1.356 6.307-1.356 1.962 0 3.872.406 5.675 1.2.6.265 1.165.584 1.684.947l2.791 1.953v-4.1h9.772v29.318c0 3.047-.447 5.741-1.325 8.007-.879 2.256-2.132 4.156-3.719 5.643-1.591 1.485-3.556 2.61-5.835 3.341-2.281.731-4.837 1.103-7.593 1.103" fill="#272c30" fill-rule="nonzero"/><path fill="#272c30" d="M228.04 12.004h10.528v44.637H228.04z"/><path d="M263.975 42.962a38.16 38.16 0 00-2.931.153c-1.153.106-2.191.309-3.087.6-.913.3-1.666.734-2.244 1.297-.581.565-.881 1.319-.881 2.234 0 .581.137 1.085.4 1.497.284.434.634.775 1.053 1.028.415.25.887.425 1.443.535a8.65 8.65 0 001.582.156c2.118 0 3.693-.569 4.825-1.735.94-.975 1.487-2.265 1.631-3.831l.181-1.962-1.972.028zm-7.25 14.434c-1.256 0-2.572-.169-3.909-.503a11.432 11.432 0 01-3.688-1.641c-1.109-.753-2.031-1.768-2.743-3.025-.71-1.256-1.072-2.825-1.072-4.665 0-2.256.628-4.103 1.859-5.485 1.235-1.381 2.844-2.462 4.791-3.215l1.594-.616.031.063a26.85 26.85 0 014.9-.96 67.691 67.691 0 015.059-.347l2.675-.084-1.122-2.428a3.482 3.482 0 00-1.247-1.459c-1.112-.744-2.428-1.104-4.04-1.104-1.469 0-2.9.316-4.253.944-1.36.628-2.538 1.391-3.5 2.269l-5.232-5.606a18.091 18.091 0 016.46-3.975 22.266 22.266 0 017.534-1.325c2.638 0 4.897.328 6.716.978 1.822.65 3.315 1.669 4.447 3.025 1.122 1.356 1.959 3.097 2.487 5.172.525 2.068.788 4.562.788 7.406V56.64h-9.457v-2.531l-2.69 1.631a9.236 9.236 0 01-1.125.584c-1.606.713-3.378 1.072-5.263 1.072M294.066 57.648c-2.55 0-5.085-.412-7.535-1.228-2.45-.818-4.515-2.037-6.147-3.625l5.804-6.115c.915 1 2.062 1.85 3.4 2.522a9.385 9.385 0 004.287 1.009c.838 0 1.675-.203 2.488-.6.818-.4 1.234-1.109 1.234-2.113 0-.959-.509-1.681-1.513-2.143-1.021-.466-2.565-.941-4.728-1.45a23.944 23.944 0 01-3.275-1.01 10.199 10.199 0 01-2.934-1.703 8.382 8.382 0 01-2.113-2.644c-.546-1.05-.821-2.321-.821-3.784 0-1.881.403-3.503 1.2-4.825a10.218 10.218 0 013.087-3.247 13.816 13.816 0 014.194-1.859 18.198 18.198 0 014.572-.597c2.34 0 4.662.369 6.903 1.103 2.237.731 4.156 1.844 5.703 3.309l-5.672 5.863a11.727 11.727 0 00-2.966-2.019 8.11 8.11 0 00-3.59-.819c-.978 0-1.856.188-2.681.569-.741.338-1.154.916-1.216 1.716l-.388 1.747 3.366 1.065.047-.112c.75.219 1.653.45 2.7.69 1.166.25 2.356.61 3.559 1.072a12.568 12.568 0 013.25 1.832 8.77 8.77 0 012.332 2.771c.584 1.085.881 2.404.881 3.907 0 1.965-.403 3.65-1.197 5.012a9.88 9.88 0 01-3.122 3.31c-1.272.837-2.725 1.453-4.319 1.828-1.59.378-3.2.568-4.79.568M325.361 57.648c-2.553 0-5.09-.412-7.531-1.228-2.45-.818-4.519-2.037-6.15-3.625l5.803-6.115c.913 1 2.063 1.85 3.4 2.522a9.527 9.527 0 004.288 1.009c.84 0 1.681-.203 2.49-.6.816-.4 1.232-1.109 1.232-2.113 0-.959-.51-1.681-1.513-2.143-1.022-.466-2.566-.941-4.728-1.45a24.2 24.2 0 01-3.278-1.01 10.223 10.223 0 01-2.931-1.703 8.436 8.436 0 01-2.113-2.647c-.547-1.047-.822-2.318-.822-3.781 0-1.881.403-3.503 1.2-4.825a10.221 10.221 0 013.088-3.247 13.81 13.81 0 014.193-1.859 18.21 18.21 0 014.572-.597c2.341 0 4.663.369 6.903 1.103 2.235.731 4.157 1.844 5.707 3.309l-5.675 5.863a11.667 11.667 0 00-2.966-2.019 8.11 8.11 0 00-3.591-.819c-.978 0-1.856.188-2.681.569-.74.338-1.153.916-1.215 1.716l-.388 1.747 3.366 1.065.047-.112c.75.219 1.653.45 2.7.69 1.175.25 2.365.61 3.559 1.072l.512.21a12.51 12.51 0 012.738 1.622 8.768 8.768 0 012.331 2.771c.588 1.088.885 2.404.885 3.907 0 1.968-.404 3.656-1.2 5.012a9.91 9.91 0 01-3.119 3.313 13.53 13.53 0 01-4.322 1.825c-1.591.378-3.2.568-4.791.568" fill="#272c30" fill-rule="nonzero"/></svg>